# Blender v2.56 (sub 1) OBJ File: 'asteroid.blend'
# www.blender.org
o asteroid_Cube
v 0.000001 -31.868542 -0.000004
v 12.852079 -30.530872 -0.000001
v -0.000001 -27.494699 11.703565
v -12.363731 -29.239895 -0.000005
v 0.000003 -30.314043 -12.770061
v 12.100009 -28.504675 -12.100007
v 11.948627 -28.133423 11.948625
v -10.062463 -23.507639 10.062456
v -12.008766 -28.280920 -12.008775
v -0.000004 33.784012 0.000005
v 0.000000 32.368397 -13.547163
v -12.032867 28.365215 0.000001
v -0.000007 29.401491 12.424867
v 14.431999 34.707523 0.000009
v 12.955343 30.602371 -12.955335
v -11.383260 26.746868 -11.383257
v -12.568409 29.653406 12.568403
v 12.221319 28.802208 12.221334
v 32.327095 -0.000000 0.000008
v 28.375818 0.000000 -12.036866
v 32.208302 13.486609 0.000010
v 33.478848 -0.000000 13.967234
v 34.356468 -14.299206 0.000005
v 26.734655 -11.378278 -11.378272
v 27.670639 11.759927 -11.759917
v 28.487162 12.092868 12.092876
v 33.688492 -14.213712 14.213717
v -0.000008 -0.000000 30.320631
v 14.890843 -0.000000 35.920528
v -0.000010 12.019309 28.329386
v -12.452732 -0.000000 29.475145
v -0.000006 -11.886593 27.978540
v 12.324402 -12.324409 29.055017
v 12.726528 12.726538 30.041233
v -12.394594 12.394586 29.227123
v -11.217700 -11.217694 26.340820
v -35.762539 0.000000 -0.000006
v -35.687817 -0.000000 14.802816
v -36.231243 15.008386 -0.000004
v -28.397455 0.000000 -12.045066
v -30.276875 -12.755997 -0.000006
v -31.364260 -13.266003 13.265997
v -36.215908 15.244264 15.244260
v -29.668928 12.574732 -12.574736
v -25.183043 -10.745609 -10.745615
v 0.000006 0.000000 -29.838932
v 12.771823 0.000000 -30.318687
v 0.000006 -12.646432 -29.987232
v -12.620834 0.000000 -29.919580
v 0.000005 10.481973 -24.265314
v 11.486582 11.486577 -27.000248
v 12.752460 -12.752455 -30.104790
v -11.089742 -11.089746 -26.027037
v -12.240944 12.240949 -28.850334
v 23.008368 -23.008366 -11.723503
v 26.271641 -26.271641 0.000002
v 25.497278 -25.497280 13.056066
v 10.340064 -20.424408 -20.424410
v 0.000005 -23.309698 -23.309702
v -10.603882 -20.917177 -20.917183
v 20.534449 -10.398973 -20.534443
v 21.551945 0.000000 -21.551935
v 19.061527 9.610373 -19.061518
v 11.281814 -22.183397 22.183397
v -0.000003 -21.648556 21.648554
v -9.783508 -19.384893 19.384890
v 23.563492 -12.020721 23.563503
v 26.118700 -0.000000 26.118710
v 21.624126 10.982389 21.624142
v -20.092566 -20.092564 10.162384
v -22.482349 -22.482349 -0.000006
v -20.190044 -20.190046 -10.214588
v -24.694588 -12.626301 24.694576
v -26.036167 -0.000000 26.036158
v -23.664553 12.074822 23.664543
v -20.138258 -10.186856 -20.138266
v -22.682116 0.000000 -22.682123
v -22.655025 11.534328 -22.655031
v 24.430882 24.430882 -12.485106
v 26.252043 26.252045 0.000011
v 23.107479 23.107485 11.776582
v 10.881987 21.436598 -21.436592
v 0.000004 21.698181 -21.698177
v -10.340149 20.424582 -20.424580
v 11.558984 22.701094 22.701101
v -0.000009 22.871155 22.871161
v -10.191667 20.147228 20.147230
v -25.107388 25.107382 12.847311
v -27.633718 27.633713 -0.000002
v -22.319811 22.319809 -11.354854
v 18.183466 -18.183464 -18.183460
v 19.328955 -19.328959 19.328959
v -17.212959 -17.212959 17.212952
v -17.987391 -17.987396 -17.987400
v 17.938282 17.938280 -17.938269
v 18.260921 18.260929 18.260935
v -19.732309 19.732304 19.732300
v -18.360630 18.360634 -18.360634
vt -0.500000 -0.500000
vt -0.500000 -0.250000
vt -0.250000 -0.250000
vt -0.250000 -0.500000
vt 0.000000 -0.250000
vt 0.000000 -0.500000
vt -0.500000 0.000000
vt -0.250000 0.000000
vt 0.000000 0.000000
vt -0.250000 -0.750000
vt -0.500000 -0.750000
vt -0.250000 -1.000000
vt -0.500000 -1.000000
vt 0.000000 -0.750000
vt 0.000000 -1.000000
vt -0.750000 -0.750000
vt -0.750000 -0.500000
vt -1.000000 -0.750000
vt -1.000000 -0.500000
vt -0.750000 -1.000000
vt -1.000000 -1.000000
vt -0.750000 -0.250000
vt -0.750000 0.000000
vt -1.000000 -0.250000
vt -1.000000 0.000000
vt -0.500000 0.500000
vt -0.250000 0.500000
vt -0.250000 0.750000
vt -0.500000 0.750000
vt -0.250000 1.000000
vt -0.500000 1.000000
vt -0.000000 0.500000
vt 0.000000 0.750000
vt 0.000000 1.000000
vt -0.750000 0.750000
vt -0.750000 0.500000
vt -1.000000 0.750000
vt -1.000000 0.500000
vt -0.750000 1.000000
vt -1.000000 1.000000
vt -0.750000 0.250000
vt -0.500000 0.250000
vt -1.000000 0.250000
vt -0.250000 0.250000
vt -0.000000 0.250000
vt 0.500000 0.500000
vt 0.500000 0.250000
vt 0.250000 0.250000
vt 0.250000 0.500000
vt 0.500000 0.000000
vt 0.250000 0.000000
vt 0.250000 0.750000
vt 0.500000 0.750000
vt 0.250000 1.000000
vt 0.500000 1.000000
vt 0.750000 0.750000
vt 0.750000 0.500000
vt 1.000000 0.750000
vt 1.000000 0.500000
vt 0.750000 1.000000
vt 1.000000 1.000000
vt 0.750000 0.250000
vt 0.750000 0.000000
vt 1.000000 0.250000
vt 1.000000 0.000000
vn -0.084414 -0.989196 0.119816
vn -0.011200 -0.922452 -0.385907
vn 0.286569 -0.845912 -0.449721
vn 0.194952 -0.980804 0.002319
vn 0.595965 -0.585986 -0.548967
vn 0.610004 -0.778405 -0.148137
vn -0.036164 -0.695517 -0.717551
vn 0.345988 -0.669912 -0.656880
vn 0.570330 -0.518235 -0.637226
vn 0.114139 -0.908811 0.401257
vn -0.169713 -0.892758 0.417249
vn 0.129551 -0.708213 0.693960
vn -0.184088 -0.732444 0.655416
vn 0.478164 -0.764367 0.432508
vn 0.364513 -0.613971 0.700095
vn -0.340434 -0.837519 0.427351
vn -0.401776 -0.903470 0.149174
vn -0.435926 -0.838527 0.326792
vn -0.651875 -0.758202 -0.012085
vn -0.263527 -0.777825 0.570513
vn -0.269723 -0.844539 0.462539
vn -0.434462 -0.825587 -0.359966
vn -0.428205 -0.586749 -0.687246
vn -0.716636 -0.589068 -0.373333
vn -0.657765 -0.489181 -0.572680
vn -0.159581 0.986114 0.045778
vn 0.282846 0.955077 0.088321
vn 0.284158 0.787683 -0.546587
vn -0.172033 0.860225 -0.479995
vn 0.273812 0.469710 -0.839259
vn -0.054903 0.548753 -0.834162
vn 0.765069 0.641896 0.050752
vn 0.662709 0.475997 -0.578082
vn 0.561296 0.311930 -0.766564
vn -0.323801 0.836818 -0.441420
vn -0.255470 0.964293 -0.069430
vn -0.461226 0.724784 -0.511765
vn -0.493667 0.850642 -0.180670
vn -0.228187 0.666219 -0.709952
vn -0.433088 0.682089 -0.589160
vn -0.184240 0.886563 0.424268
vn -0.085269 0.896573 0.434553
vn -0.164525 0.670278 0.723594
vn -0.079379 0.693503 0.716056
vn -0.396344 0.793298 0.462081
vn -0.245064 0.636433 0.731346
vn 0.270943 0.828822 0.489486
vn 0.645924 0.578997 0.497513
vn 0.308603 0.675649 0.669485
vn 0.610950 0.528764 0.589129
vn 0.980621 0.081637 -0.178076
vn 0.942351 -0.237556 -0.235572
vn 0.817957 -0.208289 -0.536210
vn 0.855525 0.022370 -0.517228
vn 0.735435 -0.283608 -0.615345
vn 0.754357 0.072878 -0.652364
vn 0.819330 0.178350 -0.544847
vn 0.965819 0.254219 -0.050417
vn 0.666890 0.238563 -0.705893
vn 0.828944 0.385296 0.405438
vn 0.930296 0.160772 0.329600
vn 0.666585 0.462966 0.584185
vn 0.717521 0.101230 0.689108
vn 0.857753 -0.321024 0.401471
vn 0.546495 -0.415174 0.727287
vn -0.152287 -0.050478 0.987030
vn -0.163701 -0.433241 0.886258
vn 0.162481 -0.494919 0.853572
vn 0.198187 0.000458 0.980132
vn 0.267403 0.491348 0.828852
vn -0.113865 0.387585 0.914762
vn -0.181371 0.402234 0.897366
vn -0.157048 -0.053560 0.986114
vn -0.414289 0.390667 0.822016
vn -0.516617 -0.054262 0.854457
vn -0.168371 -0.472671 0.864986
vn -0.404004 -0.589404 0.699515
vn -0.944090 -0.202246 -0.260231
vn -0.831172 -0.515152 -0.209143
vn -0.744621 -0.611530 0.267434
vn -0.924619 -0.143010 0.352977
vn -0.798547 0.377270 0.468978
vn -0.921567 0.302316 -0.243416
vn -0.794183 0.263283 -0.547655
vn -0.850856 -0.191839 -0.489090
vn -0.641865 0.344768 -0.684896
vn -0.721976 -0.170629 -0.670522
vn -0.811914 -0.393078 -0.431532
vn -0.693411 -0.371075 -0.617603
vn -0.034730 0.121586 -0.991943
vn 0.020783 0.372326 -0.927854
vn 0.303262 0.368236 -0.878842
vn 0.363201 0.169164 -0.916196
vn 0.416211 -0.378643 -0.826655
vn -0.093387 -0.348521 -0.932615
vn -0.394391 -0.350078 -0.849605
vn -0.289895 -0.049165 -0.955779
vn -0.164159 0.407697 -0.898221
usemtl asteroid_material_rock.png
s 1
f 1/1/1 5/2/2 6/3/3 2/4/4
f 2/4/4 6/3/3 55/5/5 56/6/6
f 5/2/2 59/7/7 58/8/8 6/3/3
f 6/3/3 58/8/8 91/9/9 55/5/5
f 1/1/1 2/4/4 7/10/10 3/11/11
f 3/11/11 7/10/10 64/12/12 65/13/13
f 2/4/4 56/6/6 57/14/14 7/10/10
f 7/10/10 57/14/14 92/15/15 64/12/12
f 1/1/1 3/11/11 8/16/16 4/17/17
f 4/17/17 8/16/16 70/18/18 71/19/19
f 3/11/11 65/13/13 66/20/20 8/16/16
f 8/16/16 66/20/20 93/21/21 70/18/18
f 1/1/1 4/17/17 9/22/22 5/2/2
f 5/2/2 9/22/22 60/23/23 59/7/7
f 4/17/17 71/19/19 72/24/24 9/22/22
f 9/22/22 72/24/24 94/25/25 60/23/23
f 10/26/26 14/27/27 15/28/28 11/29/29
f 11/29/29 15/28/28 82/30/30 83/31/31
f 14/27/27 80/32/32 79/33/33 15/28/28
f 15/28/28 79/33/33 95/34/34 82/30/30
f 10/26/26 11/29/29 16/35/35 12/36/36
f 12/36/36 16/35/35 90/37/37 89/38/38
f 11/29/29 83/31/31 84/39/39 16/35/35
f 16/35/35 84/39/39 98/40/40 90/37/37
f 10/26/26 12/36/36 17/41/41 13/42/42
f 13/42/42 17/41/41 87/23/43 86/7/44
f 12/36/36 89/38/38 88/43/45 17/41/41
f 17/41/41 88/43/45 97/25/46 87/23/43
f 10/26/26 13/42/42 18/44/47 14/27/27
f 14/27/27 18/44/47 81/45/48 80/32/32
f 13/42/42 86/7/44 85/8/49 18/44/47
f 18/44/47 85/8/49 96/9/50 81/45/48
f 19/26/51 23/42/52 24/44/53 20/27/54
f 20/27/54 24/44/53 61/45/55 62/32/56
f 23/42/52 56/7/6 55/8/5 24/44/53
f 24/44/53 55/8/5 91/9/9 61/45/55
f 19/26/51 20/27/54 25/28/57 21/29/58
f 21/29/58 25/28/57 79/30/33 80/31/32
f 20/27/54 62/32/56 63/33/59 25/28/57
f 25/28/57 63/33/59 95/34/34 79/30/33
f 19/26/51 21/29/58 26/35/60 22/36/61
f 22/36/61 26/35/60 69/37/62 68/38/63
f 21/29/58 80/31/32 81/39/48 26/35/60
f 26/35/60 81/39/48 96/40/50 69/37/62
f 19/26/51 22/36/61 27/41/64 23/42/52
f 23/42/52 27/41/64 57/23/14 56/7/6
f 22/36/61 68/38/63 67/43/65 27/41/64
f 27/41/64 67/43/65 92/25/15 57/23/14
f 28/26/66 32/42/67 33/44/68 29/27/69
f 29/27/69 33/44/68 67/45/65 68/32/63
f 32/42/67 65/7/13 64/8/12 33/44/68
f 33/44/68 64/8/12 92/9/15 67/45/65
f 28/26/66 29/27/69 34/28/70 30/29/71
f 30/29/71 34/28/70 85/30/49 86/31/44
f 29/27/69 68/32/63 69/33/62 34/28/70
f 34/28/70 69/33/62 96/34/50 85/30/49
f 28/26/66 30/29/71 35/35/72 31/36/73
f 31/36/73 35/35/72 75/37/74 74/38/75
f 30/29/71 86/31/44 87/39/43 35/35/72
f 35/35/72 87/39/43 97/40/46 75/37/74
f 28/26/66 31/36/73 36/41/76 32/42/67
f 32/42/67 36/41/76 66/23/20 65/7/13
f 31/36/73 74/38/75 73/43/77 36/41/76
f 36/41/76 73/43/77 93/25/21 66/23/20
f 37/46/78 41/47/79 42/48/80 38/49/81
f 38/49/81 42/48/80 73/45/77 74/32/75
f 41/47/79 71/50/19 70/51/18 42/48/80
f 42/48/80 70/51/18 93/9/21 73/45/77
f 37/46/78 38/49/81 43/52/82 39/53/83
f 39/53/83 43/52/82 88/54/45 89/55/38
f 38/49/81 74/32/75 75/33/74 43/52/82
f 43/52/82 75/33/74 97/34/46 88/54/45
f 37/46/78 39/53/83 44/56/84 40/57/85
f 40/57/85 44/56/84 78/58/86 77/59/87
f 39/53/83 89/55/38 90/60/37 44/56/84
f 44/56/84 90/60/37 98/61/40 78/58/86
f 37/46/78 40/57/85 45/62/88 41/47/79
f 41/47/79 45/62/88 72/63/24 71/50/19
f 40/57/85 77/59/87 76/64/89 45/62/88
f 45/62/88 76/64/89 94/65/25 72/63/24
f 46/1/90 50/2/91 51/3/92 47/4/93
f 47/4/93 51/3/92 63/5/59 62/6/56
f 50/2/91 83/7/31 82/8/30 51/3/92
f 51/3/92 82/8/30 95/9/34 63/5/59
f 46/1/90 47/4/93 52/10/94 48/11/95
f 48/11/95 52/10/94 58/12/8 59/13/7
f 47/4/93 62/6/56 61/14/55 52/10/94
f 52/10/94 61/14/55 91/15/9 58/12/8
f 46/1/90 48/11/95 53/16/96 49/17/97
f 49/17/97 53/16/96 76/18/89 77/19/87
f 48/11/95 59/13/7 60/20/23 53/16/96
f 53/16/96 60/20/23 94/21/25 76/18/89
f 46/1/90 49/17/97 54/22/98 50/2/91
f 50/2/91 54/22/98 84/23/39 83/7/31
f 49/17/97 77/19/87 78/24/86 54/22/98
f 54/22/98 78/24/86 98/25/40 84/23/39
